<svg width="136" height="38" viewBox="0 0 136 38" fill="none" xmlns="http://www.w3.org/2000/svg">
<path d="M5.13272 14.8603C5.79267 13.5861 6.69699 12.5508 7.84576 11.7545C9.01894 10.9581 10.351 10.5599 11.8419 10.5599C13.5773 10.5599 15.1415 11.1173 16.5347 12.2323C17.9523 13.3472 19.0644 14.9399 19.871 17.0105C20.702 19.0492 21.1175 21.4224 21.1175 24.1301C21.1175 26.8378 20.702 29.2428 19.871 31.3452C19.0644 33.4158 17.9523 35.0245 16.5347 36.1712C15.1415 37.318 13.5773 37.8914 11.8419 37.8914C10.3266 37.8914 8.9945 37.5092 7.84576 36.7446C6.72143 35.9483 5.81711 34.9289 5.13272 33.6866V37.4614H0V2.10242H5.13272V14.8603ZM15.8748 24.1301C15.8748 22.5373 15.6182 21.1676 15.1049 20.0208C14.6161 18.8422 13.9561 17.9502 13.1251 17.345C12.3186 16.7397 11.4386 16.4371 10.4854 16.4371C9.55664 16.4371 8.67676 16.7557 7.84576 17.3928C7.03917 17.998 6.37925 18.89 5.86599 20.0686C5.37713 21.2472 5.13272 22.6329 5.13272 24.2256C5.13272 25.8184 5.37713 27.2041 5.86599 28.3827C6.37925 29.5614 7.03917 30.4692 7.84576 31.1063C8.67676 31.7116 9.55664 32.0142 10.4854 32.0142C11.4386 32.0142 12.3186 31.6956 13.1251 31.0585C13.9561 30.4214 14.6161 29.5136 15.1049 28.335C15.6182 27.1563 15.8748 25.7547 15.8748 24.1301Z" fill="white"/>
<path d="M27.4503 7.83632C26.546 7.83632 25.7883 7.46998 25.1772 6.73729C24.5907 5.97279 24.2974 5.03308 24.2974 3.91815C24.2974 2.80323 24.5907 1.87944 25.1772 1.14678C25.7883 0.382258 26.546 0 27.4503 0C28.3547 0 29.1001 0.382258 29.6867 1.14678C30.2978 1.87944 30.6033 2.80323 30.6033 3.91815C30.6033 5.03308 30.2978 5.97279 29.6867 6.73729C29.1001 7.46998 28.3547 7.83632 27.4503 7.83632ZM29.98 10.9899V37.4614H24.8473V10.9899H29.98Z" fill="white"/>
<path d="M47.0766 37.4614L40.1841 26.1847V37.4614H35.0513V2.10242H40.1841V22.2188L47.0032 10.9899H53.6757L44.73 24.2734L53.7492 37.4614H47.0766Z" fill="white"/>
<path d="M54.1233 24.2256C54.1233 21.4861 54.5511 19.097 55.4064 17.0583C56.262 14.9877 57.4471 13.3949 58.9626 12.28C60.478 11.1333 62.2133 10.5599 64.1686 10.5599C66.6862 10.5599 68.7639 11.3881 70.4013 13.0445C72.0632 14.6691 73.1753 16.9627 73.7376 19.9252H68.2016C67.9083 18.7785 67.407 17.8865 66.6982 17.2494C66.014 16.5805 65.1587 16.246 64.1321 16.246C62.6656 16.246 61.5046 16.9468 60.649 18.3484C59.7937 19.7181 59.3659 21.6772 59.3659 24.2256C59.3659 26.7422 59.7937 28.7012 60.649 30.1029C61.5046 31.4726 62.6656 32.1575 64.1321 32.1575C66.2094 32.1575 67.5659 30.947 68.2016 28.5261H73.7376C73.1753 31.393 72.0632 33.6706 70.4013 35.3589C68.7394 37.0473 66.6617 37.8914 64.1686 37.8914C62.2133 37.8914 60.478 37.3339 58.9626 36.219C57.4471 35.0722 56.262 33.4795 55.4064 31.4408C54.5511 29.3702 54.1233 26.9651 54.1233 24.2256Z" fill="white"/>
<path d="M81.612 15.0992C82.2722 13.6976 83.1274 12.5986 84.1785 11.8022C85.2537 11.0058 86.4758 10.6077 87.8447 10.6077V17.6317H86.4882C84.8748 17.6317 83.6528 18.1254 82.822 19.1129C82.0153 20.1004 81.612 21.8206 81.612 24.2734V37.4613H76.4794V10.9899H81.612V15.0992Z" fill="white"/>
<path d="M103.584 33.6866C103.022 34.897 102.105 35.9164 100.834 36.7446C99.5633 37.541 98.1944 37.9392 96.7279 37.9392C95.4569 37.9392 94.3083 37.6047 93.2817 36.9358C92.2551 36.2669 91.4484 35.3431 90.862 34.1644C90.2753 32.9858 89.9819 31.6319 89.9819 30.1029C89.9819 27.6501 90.6786 25.6432 92.0717 24.0823C93.4896 22.5214 95.6038 21.741 98.4143 21.741H103.584C103.535 20.0527 103.156 18.7148 102.447 17.7273C101.763 16.7079 100.81 16.1982 99.5878 16.1982C98.5122 16.1982 97.6201 16.5805 96.9113 17.345C96.2026 18.0777 95.7503 19.113 95.5548 20.4509H90.4222C90.6666 18.5396 91.1919 16.8353 91.9986 15.3382C92.8294 13.8091 93.9049 12.6305 95.2249 11.8022C96.569 10.9422 98.0724 10.5121 99.7343 10.5121C101.445 10.5121 102.985 10.974 104.354 11.8978C105.747 12.8216 106.835 14.1436 107.616 15.8638C108.399 17.5839 108.79 19.6067 108.79 21.9321V37.4614H103.584V33.6866ZM98.2309 32.5398C99.0866 32.5398 99.9177 32.3009 100.724 31.8231C101.555 31.3452 102.239 30.6285 102.777 29.6729C103.315 28.7172 103.584 27.5864 103.584 26.2803V26.0892H98.7077C97.5346 26.0892 96.6545 26.3918 96.0681 26.997C95.5059 27.6023 95.2249 28.3987 95.2249 29.3861C95.2249 30.3418 95.4814 31.1063 95.9947 31.6797C96.5325 32.2531 97.2778 32.5398 98.2309 32.5398Z" fill="white"/>
<path d="M119.614 16.4849V37.4614H114.408V16.4849H112.098V10.9899H114.408V9.65201C114.408 6.4028 115.117 4.01369 116.534 2.48466C117.952 0.955622 120.09 0.238886 122.95 0.334452V5.97277C121.704 5.9409 120.836 6.21168 120.347 6.78507C119.858 7.35846 119.614 8.39375 119.614 9.89093V10.9899H126.284V4.44373H131.454V10.9899H136V16.4849H131.454V29.2906C131.454 30.1825 131.613 30.8355 131.93 31.2496C132.273 31.6319 132.835 31.823 133.617 31.823H136V37.4614H132.774C128.448 37.4614 126.284 34.7218 126.284 29.2428V16.4849H119.614Z" fill="white"/>
</svg>
