<svg width="16" height="15" viewBox="0 0 16 15" fill="none" xmlns="http://www.w3.org/2000/svg">
<path d="M12.6667 3.93154H12.12L10.9867 0.864939C10.8928 0.612078 10.7224 0.39358 10.4983 0.238917C10.2742 0.0842542 10.0072 0.000866004 9.73333 0H8.66667C8.3 0 8 0.294866 8 0.655257C8 1.01565 8.3 1.31051 8.66667 1.31051H9.73333L10.7067 3.93154H7.5L7.26 3.27628H7.32C7.68667 3.27628 7.98667 2.98142 7.98667 2.62103C7.98667 2.26064 7.68667 1.96577 7.32 1.96577H5.33333C4.96667 1.96577 4.66667 2.26064 4.66667 2.62103C4.66667 2.98142 4.96667 3.27628 5.33333 3.27628H5.83333L7.04667 6.55257H6.6C6.30667 5.09135 5.06 4.01017 3.5 3.93809C1.63333 3.84636 0 5.37311 0 7.20783C0 9.04255 1.46667 10.4841 3.33333 10.4841C4.97333 10.4841 6.3 9.37673 6.6 7.86308H9.4C9.69333 9.32431 10.94 10.4055 12.5 10.4776C14.3667 10.5627 16 9.04255 16 7.20127C16 5.37311 14.5333 3.93154 12.6667 3.93154ZM4 7.86308H5.21333C4.93333 8.66905 4.14667 9.22602 3.2 9.16704C2.20667 9.10807 1.38 8.28245 1.33333 7.29956C1.28667 6.15286 2.18 5.24206 3.33333 5.24206C4.22 5.24206 4.94667 5.78592 5.21333 6.55257H4C3.63333 6.55257 3.33333 6.84744 3.33333 7.20783C3.33333 7.56822 3.63333 7.86308 4 7.86308ZM9.4 6.55257H8.46667L7.98 5.24206H10C9.70667 5.62211 9.49333 6.06113 9.4 6.55257ZM12.5867 9.1736C11.56 9.13428 10.6933 8.2759 10.6667 7.26025C10.6533 6.6312 10.9267 6.08078 11.3667 5.71384L11.78 6.82778C11.9067 7.16851 12.2867 7.34543 12.6333 7.22093C12.98 7.09643 13.16 6.72294 13.0333 6.3822L12.6133 5.24861L12.62 5.24206C12.8873 5.2331 13.1537 5.27747 13.403 5.3725C13.6524 5.46753 13.8795 5.61125 14.0708 5.79497C14.2621 5.97869 14.4135 6.1986 14.5159 6.44143C14.6183 6.68426 14.6696 6.94498 14.6667 7.20783C14.6667 8.33487 13.7467 9.21291 12.5867 9.1736ZM7.33333 12.4499H4.66667L8.66667 14.4157V13.1051H11.3333L7.33333 11.1394V12.4499Z" fill="#F9BA04"/>
</svg>
