<svg width="16" height="15" viewBox="0 0 16 15" fill="none" xmlns="http://www.w3.org/2000/svg">
<path d="M8 4.5868C6.39273 4.5868 5.09091 5.75971 5.09091 7.20783C5.09091 8.65594 6.39273 9.82885 8 9.82885C9.60727 9.82885 10.9091 8.65594 10.9091 7.20783C10.9091 5.75971 9.60727 4.5868 8 4.5868ZM14.5018 6.55257C14.3371 5.22379 13.6757 3.98497 12.6264 3.03954C11.5771 2.0941 10.2021 1.49825 8.72727 1.34983V0.655257C8.72727 0.294866 8.4 0 8 0C7.6 0 7.27273 0.294866 7.27273 0.655257V1.34983C5.79791 1.49825 4.42294 2.0941 3.3736 3.03954C2.32425 3.98497 1.66292 5.22379 1.49818 6.55257H0.727273C0.327273 6.55257 0 6.84744 0 7.20783C0 7.56822 0.327273 7.86308 0.727273 7.86308H1.49818C1.66292 9.19186 2.32425 10.4307 3.3736 11.3761C4.42294 12.3216 5.79791 12.9174 7.27273 13.0658V13.7604C7.27273 14.1208 7.6 14.4157 8 14.4157C8.4 14.4157 8.72727 14.1208 8.72727 13.7604V13.0658C10.2021 12.9174 11.5771 12.3216 12.6264 11.3761C13.6757 10.4307 14.3371 9.19186 14.5018 7.86308H15.2727C15.6727 7.86308 16 7.56822 16 7.20783C16 6.84744 15.6727 6.55257 15.2727 6.55257H14.5018ZM8 11.7946C5.18545 11.7946 2.90909 9.74367 2.90909 7.20783C2.90909 4.67198 5.18545 2.62103 8 2.62103C10.8145 2.62103 13.0909 4.67198 13.0909 7.20783C13.0909 9.74367 10.8145 11.7946 8 11.7946Z" fill="#F9BA04"/>
</svg>
