<svg width="201" height="49" viewBox="0 0 201 49" fill="none" xmlns="http://www.w3.org/2000/svg">
<g clip-path="url(#clip0_28_64)">
<path d="M54.7939 44.0141C51.4739 44.0141 48.9289 43.4461 47.1579 42.3101C45.4179 41.1421 44.549 39.4371 44.549 37.1961C44.549 36.0601 44.9289 35.1281 45.6869 34.4021C46.4779 33.6451 47.4899 33.2661 48.7229 33.2661C49.45 33.2981 50.0029 33.4861 50.3829 33.8341C50.7629 34.1501 50.9529 34.4501 50.9529 34.7341C50.9529 34.7651 50.7939 34.8761 50.4779 35.0651C50.1619 35.2551 49.8779 35.5391 49.6239 35.9171C49.3709 36.2971 49.2439 36.8171 49.2439 37.4801C49.2439 38.9641 49.6879 40.1161 50.5729 40.9371C51.4899 41.7261 52.8969 42.1201 54.7939 42.1201C56.0909 42.1201 57.2289 41.8681 58.2099 41.3631C59.1899 40.8581 59.933 40.1951 60.4389 39.3741C60.976 38.5221 61.2449 37.6381 61.2449 36.7221C61.2449 35.5861 60.9129 34.6081 60.2489 33.7871C59.604 32.9555 58.7975 32.2629 57.8779 31.7511C56.9279 31.1831 55.6319 30.5351 53.9879 29.8091C52.0909 28.9571 50.5579 28.1841 49.3879 27.4891C48.2122 26.7902 47.1942 25.8552 46.3979 24.7431C45.5769 23.5751 45.1659 22.1391 45.1659 20.4341C45.1659 17.6881 46.0979 15.6361 47.9639 14.2791C49.8619 12.9211 52.3439 12.2431 55.4109 12.2431C57.8139 12.2431 59.9009 12.7481 61.6719 13.7581C63.4749 14.7681 64.3759 16.2521 64.3759 18.2081C64.3759 19.3451 63.9799 20.2921 63.1899 21.0501C62.4309 21.7761 61.4349 22.1391 60.202 22.1391C59.474 22.1071 58.9209 21.9331 58.542 21.6181C58.162 21.2711 57.9719 20.9551 57.9719 20.6711C57.9719 20.6391 58.1779 20.5291 58.5889 20.3391C59.0319 20.1501 59.4109 19.8661 59.7269 19.4871C60.0749 19.1081 60.2489 18.5871 60.2489 17.9251C60.2489 16.7571 59.7909 15.8411 58.8739 15.1781C57.9879 14.5151 56.8499 14.1841 55.4579 14.1841C53.5299 14.1841 52.0589 14.6421 51.0479 15.5571C50.0669 16.4411 49.577 17.5461 49.577 18.8721C49.577 19.9761 49.8769 20.9081 50.4779 21.6651C51.0779 22.3911 52.0429 23.1171 53.3709 23.8431C54.5225 24.4486 55.6931 25.0172 56.8809 25.5481C58.9049 26.4631 60.5019 27.3001 61.6719 28.0581C62.8766 28.8188 63.8972 29.8377 64.66 31.0411C65.482 32.2711 65.894 33.8031 65.894 35.6331C65.894 37.2121 65.3879 38.6481 64.3759 39.9431C63.396 41.2051 62.0509 42.1991 60.3439 42.9251C58.6679 43.6511 56.8179 44.0151 54.7939 44.0151V44.0141ZM78.8069 43.6361C76.6569 43.6361 74.949 42.9881 73.684 41.6941C72.419 40.4001 71.7869 38.6951 71.7869 36.5801V27.8201C71.7869 27.0001 71.7549 26.4001 71.6919 26.0211C71.6609 25.6431 71.4709 25.3111 71.1219 25.0271C70.7749 24.7431 70.19 24.6011 69.368 24.6011C68.988 24.6011 68.7039 24.5541 68.5139 24.4591C68.3239 24.3331 68.2299 24.0641 68.2299 23.6541C68.2299 23.4641 68.293 23.2911 68.42 23.1341C68.546 22.9441 68.7359 22.8341 68.9889 22.8021C70.9809 22.5171 72.6889 22.1071 74.1109 21.5701C74.5539 21.4131 74.917 21.3181 75.202 21.2861H75.3439C75.8499 21.2861 76.104 21.5861 76.104 22.1861V36.5331C76.104 37.9851 76.562 39.1061 77.479 39.8951C78.3679 40.6425 79.4957 41.0456 80.657 41.0311C82.143 41.0311 83.407 40.6681 84.451 39.9421C85.4949 39.2161 86.1909 38.4901 86.5379 37.7641V27.8211C86.5379 27.0001 86.5069 26.4011 86.4439 26.0211C86.4119 25.6431 86.2219 25.3111 85.8739 25.0271C85.5259 24.7431 84.9409 24.6011 84.1189 24.6011C83.7389 24.6011 83.4549 24.5541 83.2659 24.4591C83.0759 24.3331 82.9809 24.0641 82.9809 23.6541C82.9809 23.4641 83.044 23.2911 83.171 23.1341C83.297 22.9441 83.487 22.8341 83.74 22.8021C85.732 22.5171 87.4399 22.1071 88.8629 21.5701C89.3049 21.4131 89.6689 21.3181 89.9529 21.2861H90.0959C90.6019 21.2861 90.8549 21.5861 90.8549 22.1861V38.5701C90.8549 40.4331 92.104 41.3641 94.602 41.3641C95.139 41.3641 95.408 41.6641 95.408 42.2641C95.408 42.7051 95.139 42.9741 94.602 43.0681L86.965 43.5891C86.7439 43.5891 86.6169 43.5101 86.5849 43.3531C86.5549 43.2261 86.5379 42.9901 86.5379 42.6431V39.9901H86.4439C85.718 40.672 84.9744 41.3349 84.214 41.9781C83.645 42.4201 82.9019 42.7991 81.9839 43.1151C81.0989 43.4621 80.0399 43.6351 78.8069 43.6351V43.6361ZM98.0029 43.2101C97.8924 43.2096 97.7835 43.1836 97.6846 43.1342C97.5858 43.0848 97.4997 43.0132 97.4329 42.9251C97.3069 42.7361 97.243 42.5151 97.243 42.2631C97.275 41.8531 97.3699 41.6151 97.5279 41.5531C97.6869 41.4581 97.971 41.4101 98.382 41.4101C99.2039 41.4101 99.7889 41.2681 100.137 40.9841C100.485 40.7001 100.675 40.3681 100.706 39.9901C100.77 39.6101 100.801 39.0111 100.801 38.1901V27.3471C100.801 26.5271 100.77 25.9271 100.706 25.5471C100.675 25.1691 100.485 24.8371 100.137 24.5541C99.7889 24.2701 99.2039 24.1271 98.382 24.1271C98.0019 24.1271 97.7179 24.0801 97.5289 23.9851C97.3389 23.8591 97.2439 23.5911 97.2439 23.1801C97.2439 22.9911 97.307 22.8171 97.434 22.6601C97.56 22.4701 97.7499 22.3601 98.0029 22.3281C100.058 22.0121 101.75 21.6021 103.078 21.0971C103.616 20.9391 103.979 20.8441 104.169 20.8131H104.311C104.817 20.8131 105.07 21.1131 105.07 21.7131V24.6481H105.212C106.319 23.5431 107.442 22.6751 108.58 22.0441C109.719 21.3811 110.746 21.0501 111.663 21.0501C112.707 21.0501 113.529 21.4441 114.13 22.2331C114.762 22.9911 115.078 23.8751 115.078 24.8851C115.078 25.7691 114.81 26.5581 114.272 27.2521C113.734 27.9471 112.991 28.2941 112.043 28.2941C111.63 28.3013 111.222 28.2036 110.857 28.0101C110.541 27.8201 110.367 27.6631 110.335 27.5371C110.367 27.4741 110.525 27.2841 110.809 26.9681C111.094 26.6211 111.236 26.2271 111.236 25.7851C111.236 25.2161 111.078 24.7591 110.762 24.4121C110.477 24.0641 110.082 23.8911 109.576 23.8911C109.039 23.8911 108.359 24.1591 107.537 24.6961C106.714 25.2011 105.908 25.8481 105.118 26.6371V38.1901C105.118 39.0111 105.149 39.6101 105.212 39.9901C105.276 40.3681 105.481 40.7001 105.829 40.9841C106.177 41.2681 106.762 41.4101 107.584 41.4101H107.869C108.122 41.4101 108.311 41.4581 108.438 41.5521C108.564 41.6471 108.643 41.8841 108.675 42.2621C108.675 42.5151 108.612 42.7361 108.485 42.9251C108.359 43.1151 108.169 43.2101 107.916 43.2101C106.257 43.12 104.597 43.0723 102.936 43.0671C101.513 43.0671 99.8689 43.1151 98.0029 43.2091V43.2101ZM171.67 43.6361C169.52 43.6361 167.607 43.1301 165.931 42.1201C164.255 41.0791 162.943 39.7211 161.994 38.0481C161.09 36.3928 160.617 34.5363 160.619 32.6501C160.619 30.2831 161.172 28.2311 162.279 26.4951C163.386 24.7271 164.793 23.3851 166.5 22.4701C168.208 21.5231 169.931 21.0501 171.67 21.0501C173.821 21.0501 175.734 21.5701 177.41 22.6121C179.054 23.5888 180.399 24.9971 181.299 26.6841C182.236 28.3112 182.726 30.1567 182.722 32.0341C182.722 34.4021 182.153 36.4701 181.015 38.2381C179.908 39.9741 178.501 41.3151 176.793 42.2621C175.086 43.1781 173.378 43.6361 171.67 43.6361ZM171.67 41.8841C173.821 41.8841 175.386 40.9681 176.366 39.1371C177.378 37.3071 177.884 34.9391 177.884 32.0351C177.884 29.3201 177.362 27.1111 176.319 25.4051C175.307 23.6701 173.757 22.8021 171.67 22.8021C169.489 22.8021 167.908 23.7021 166.927 25.5011C165.947 27.3001 165.457 29.6511 165.457 32.5561C165.457 35.2701 165.963 37.5121 166.975 39.2791C167.987 41.0161 169.552 41.8841 171.67 41.8841ZM194.674 43.8721C193.124 43.8721 191.796 43.3041 190.689 42.1681C189.583 41.0311 189.029 39.4061 189.029 37.2911V23.3701L186.278 23.4651C186.186 23.4658 186.095 23.4448 186.012 23.4036C185.93 23.3624 185.859 23.3022 185.804 23.2281C185.68 23.0468 185.613 22.832 185.614 22.6121C185.614 22.3281 185.662 22.0921 185.756 21.9021C185.883 21.6811 186.057 21.5551 186.278 21.5231C187.385 21.3031 188.239 20.9551 188.84 20.4821C189.472 19.9761 189.931 19.4401 190.215 18.8721C190.5 18.2721 190.848 17.3721 191.259 16.1721C191.417 15.7621 191.765 15.5571 192.302 15.5571C192.523 15.5571 192.745 15.6201 192.966 15.7471C193.187 15.8411 193.298 15.9991 193.298 16.2201L192.966 21.6181L198.516 21.2861H198.611C199.022 21.2861 199.227 21.5861 199.227 22.1861C199.227 22.5331 199.164 22.8651 199.037 23.1801C198.943 23.4651 198.816 23.6071 198.658 23.6071L193.346 23.4651V37.8591C193.346 38.9011 193.551 39.7691 193.962 40.4631C194.405 41.1581 195.116 41.5051 196.097 41.5051C197.077 41.5051 197.947 41.3311 198.705 40.9841C199.117 40.8261 199.369 40.7471 199.464 40.7471C199.686 40.7471 199.86 40.8421 199.986 41.0311C200.113 41.1891 200.239 41.4111 200.366 41.6941C200.399 41.7685 200.416 41.8495 200.413 41.9311C200.413 42.0571 200.318 42.1991 200.128 42.3571C199.211 42.9571 198.342 43.3521 197.52 43.5411C196.729 43.7611 195.78 43.8721 194.674 43.8721ZM118.01 42.9251C118.136 43.1151 118.326 43.2091 118.579 43.2091C120.222 43.1189 121.867 43.0716 123.512 43.0671C125.631 43.0671 127.607 43.1151 129.441 43.2091C129.545 43.2115 129.648 43.1865 129.74 43.1367C129.831 43.0868 129.908 43.0139 129.963 42.9251C130.089 42.7351 130.152 42.5151 130.152 42.2621C130.121 41.8841 130.042 41.6471 129.915 41.5521C129.82 41.4581 129.631 41.4101 129.346 41.4101H129.061C128.018 41.4101 127.275 41.3311 126.832 41.1731C126.389 41.0161 126.089 40.7311 125.931 40.3211C125.773 39.8791 125.694 39.1691 125.694 38.1911V23.4631H130.722C130.832 23.4626 130.941 23.4367 131.04 23.3874C131.138 23.3382 131.224 23.2669 131.291 23.1791C131.449 22.9901 131.528 22.7691 131.528 22.5161C131.496 22.1381 131.401 21.9011 131.243 21.8061C131.117 21.6801 130.911 21.6161 130.627 21.6161H125.694V18.7761C125.694 17.2611 125.757 15.9351 125.883 14.7981C126.001 13.6566 126.374 12.5563 126.974 11.5781C127.575 10.6001 128.508 10.1111 129.773 10.1111C129.918 10.1111 130.059 10.1191 130.195 10.1361C130.177 9.60562 130.212 9.07469 130.299 8.5511C130.234 8.54931 130.17 8.54831 130.105 8.5481C127.322 8.6111 125.156 9.6681 123.607 11.7211C122.089 13.7411 121.33 16.3771 121.33 19.6281V21.6171H118.484C118.073 21.6171 117.788 21.6641 117.63 21.7591C117.472 21.8221 117.377 22.0751 117.346 22.5161C117.346 22.7691 117.409 22.9901 117.535 23.1791C117.694 23.3691 117.899 23.4641 118.152 23.4641H121.33V38.1901C121.33 39.0431 121.298 39.6581 121.235 40.0371C121.204 40.3841 121.014 40.7001 120.666 40.9841C120.318 41.2681 119.733 41.4101 118.911 41.4101C118.5 41.4101 118.215 41.4581 118.057 41.5521C117.931 41.6151 117.852 41.8521 117.82 42.2621C117.82 42.5151 117.883 42.7361 118.01 42.9251Z" fill="#9C9C9C"/>
<path fill-rule="evenodd" clip-rule="evenodd" d="M143.365 9.865C143.364 10.5564 143.227 11.2409 142.962 11.8794C142.697 12.518 142.309 13.098 141.819 13.5865C141.33 14.0749 140.749 14.4622 140.11 14.7261C139.471 14.9901 138.786 15.1257 138.095 15.125C136.699 15.1261 135.359 14.5725 134.371 13.5862C133.383 12.5998 132.827 11.2613 132.825 9.865C132.825 9.17346 132.962 8.48879 133.227 7.85009C133.492 7.21139 133.881 6.63117 134.37 6.14255C134.859 5.65392 135.44 5.26647 136.079 5.00232C136.719 4.73816 137.403 4.60247 138.095 4.603C138.787 4.60234 139.471 4.73794 140.111 5.00205C140.75 5.26616 141.331 5.6536 141.82 6.14225C142.309 6.6309 142.698 7.21118 142.963 7.84994C143.228 8.4887 143.365 9.17342 143.365 9.865ZM138.095 12.495C138.441 12.4954 138.783 12.4277 139.103 12.2957C139.422 12.1637 139.713 11.9701 139.957 11.7259C140.202 11.4816 140.396 11.1916 140.529 10.8723C140.661 10.553 140.73 10.2107 140.73 9.865C140.73 9.51919 140.662 9.1768 140.529 8.85739C140.396 8.53798 140.202 8.24782 139.958 8.00348C139.713 7.75914 139.422 7.56542 139.103 7.43339C138.783 7.30136 138.441 7.2336 138.095 7.234C137.397 7.23373 136.727 7.51058 136.233 8.00371C135.739 8.49685 135.461 9.16594 135.46 9.864C135.461 10.5622 135.739 11.2316 136.233 11.7249C136.727 12.2183 137.397 12.4953 138.095 12.495ZM135.785 17.414V42.784C135.785 43.067 135.865 43.288 136.023 43.446C136.181 43.636 136.402 43.73 136.687 43.73C136.971 43.73 137.208 43.604 137.398 43.352C137.588 43.131 137.762 42.799 137.92 42.357C138.078 41.915 138.22 41.568 138.347 41.315H138.584C140.639 42.862 143.074 43.635 145.888 43.635C147.786 43.635 149.572 43.13 151.248 42.12C152.924 41.11 154.252 39.737 155.233 38C156.244 36.233 156.75 34.292 156.75 32.177C156.75 30.03 156.308 28.121 155.422 26.447C154.569 24.743 153.383 23.417 151.865 22.47C150.347 21.523 148.655 21.05 146.79 21.05C145.651 21.05 144.497 21.286 143.327 21.76C142.189 22.202 141.161 22.88 140.244 23.796H140.102V17.5C138.682 17.8685 137.189 17.8388 135.785 17.414ZM150.11 39.421C148.94 41.158 147.39 42.026 145.462 42.026C144.45 42.026 143.549 41.805 142.758 41.363C141.999 40.921 141.382 40.4 140.908 39.8C140.465 39.169 140.197 38.6 140.102 38.096V25.596C141.461 24.143 143.137 23.417 145.13 23.417C147.375 23.417 149.066 24.301 150.205 26.069C151.343 27.805 151.912 29.904 151.912 32.366C151.912 35.302 151.312 37.654 150.11 39.421ZM13.1129 0.366998C13.4484 0.127971 13.85 -0.000488281 14.2619 -0.000488281C14.6738 -0.000488281 15.0755 0.127971 15.4109 0.366998C23.9709 6.471 27.8509 13.788 28.0959 24.287C28.2089 29.3 27.7259 33.89 26.2549 37.855C24.7449 41.823 22.0619 45.488 18.1119 48.584C17.866 48.7751 17.5784 48.9055 17.2726 48.9646C16.9668 49.0237 16.6514 49.0098 16.3519 48.924C15.1419 48.577 14.9359 47.145 14.2619 46.253C13.5879 47.145 13.3839 48.576 12.1719 48.923C11.8727 49.0086 11.5574 49.0224 11.2518 48.9633C10.9462 48.9043 10.6588 48.774 10.4129 48.583C6.46293 45.488 3.77893 41.823 2.26993 37.855C0.799934 33.89 0.315934 29.3 0.428934 24.287C0.672934 13.788 4.55293 6.47 13.1129 0.366998ZM17.5389 44.062C20.0109 41.792 21.5009 39.317 22.5529 36.47C23.8779 32.99 24.2599 29.144 24.1449 24.379C23.9549 16.192 22.0349 10.865 16.2219 5.919V20.387C18.4949 20.971 19.5149 23.197 19.5149 25.647C19.5149 28.099 18.4949 30.325 16.2219 30.909V42.746C16.2219 42.746 17.2779 43.719 17.5389 44.062ZM10.9509 44.062C8.47893 41.792 7.02393 39.317 5.97093 36.47C4.64693 32.99 4.26493 29.144 4.38093 24.379C4.57093 16.209 6.47993 10.859 12.2689 5.919V20.387C9.99593 20.971 8.97493 23.197 8.97493 25.647C8.97493 28.099 9.99493 30.325 12.2689 30.909V42.746C12.2689 42.746 11.2029 43.731 10.9509 44.062ZM14.2449 23.017C13.5468 23.0165 12.877 23.2932 12.3829 23.7864C11.8888 24.2796 11.6107 24.9489 11.6099 25.647C11.6099 27.101 12.7899 28.278 14.2449 28.278C14.9431 28.2785 15.6129 28.0018 16.107 27.5086C16.6011 27.0154 16.8791 26.3461 16.8799 25.648C16.8799 24.195 15.6999 23.018 14.2449 23.018V23.017Z" fill="#9C9C9C"/>
</g>
<defs>
<clipPath id="clip0_28_64">
<rect width="200" height="49" fill="white" transform="translate(0.412964)"/>
</clipPath>
</defs>
</svg>
