<svg width="22" height="22" viewBox="0 0 22 22" fill="none" xmlns="http://www.w3.org/2000/svg">
<path d="M3.06652 5.73327C1.32089 7.47919 0.338025 9.84555 0.333027 12.3144C0.328029 14.7833 1.30131 17.1536 3.03985 18.9066C4.99985 14.3733 8.49319 10.5866 12.8532 8.33327C9.08994 11.5175 6.54961 15.91 5.66652 20.7599C9.13319 22.3999 13.3999 21.7999 16.2665 18.9333C20.2532 14.9466 21.3732 4.07994 21.6132 1.09327C21.6215 0.998373 21.609 0.902795 21.5764 0.813264C21.5439 0.723733 21.4921 0.642425 21.4247 0.575061C21.3574 0.507697 21.2761 0.455913 21.1865 0.423354C21.097 0.390795 21.0014 0.378252 20.9065 0.386606C17.9199 0.626606 7.05319 1.74661 3.06652 5.73327Z" fill="#FFBB00"/>
</svg>
