<svg width="197" height="34" viewBox="0 0 197 34" fill="none" xmlns="http://www.w3.org/2000/svg">
<g clip-path="url(#clip0_28_67)">
<path d="M22.0571 32.9551C20.8837 32.9866 19.7213 32.7221 18.6771 32.1861C17.6385 31.6538 16.7526 30.8657 16.1031 29.8961C14.058 31.7746 11.4084 32.8596 8.63309 32.9551C3.64609 32.9551 0.943086 29.4911 1.85609 24.5251C2.55009 20.7911 5.65509 17.0491 6.52309 14.0451C4.84309 13.0371 2.34909 12.3351 1.18009 14.3951L0.413086 13.9361C1.02509 11.6781 2.50409 10.1761 4.64109 10.1761C6.77809 10.1761 8.35809 11.4261 10.3951 10.2751H12.0201C11.1531 14.7731 8.96109 18.3711 7.79209 24.6691C7.08009 28.5291 8.40409 30.2831 10.6421 30.2831C12.2953 30.0798 13.8161 29.2758 14.9151 28.0241C14.0226 25.8277 13.5727 23.4768 13.5911 21.1061C13.5911 15.6361 16.1391 9.87009 20.4131 9.87009C22.6051 9.87009 24.2301 11.3721 24.2301 14.9351C24.2301 18.4971 22.0391 24.0121 19.2441 27.4751C19.3951 28.3001 19.8341 29.0471 20.4841 29.5881C21.1341 30.1281 21.9551 30.4281 22.8061 30.4361C26.8791 30.4361 29.7281 24.4161 29.7281 18.8481C29.7281 13.2801 27.2811 13.5311 27.4911 11.6511C27.51 11.4162 27.5751 11.1873 27.6827 10.9776C27.7903 10.7679 27.9383 10.5815 28.1181 10.4291C28.4821 10.1191 28.9561 9.96409 29.4361 9.99609C30.7061 9.99609 32.3761 11.5791 32.3761 18.0031C32.3761 26.1891 27.9561 32.9551 22.0561 32.9551H22.0571ZM21.1351 12.6951C19.8651 12.6951 18.6411 17.3101 18.4861 22.0781C18.4268 23.0977 18.4452 24.1203 18.5411 25.1371C20.4562 22.0182 21.625 18.499 21.9561 14.8541C21.9471 13.2341 21.6461 12.6941 21.1341 12.6941L21.1351 12.6951ZM40.7421 32.7481C40.2095 32.8023 39.6715 32.7406 39.1651 32.5671C38.6606 32.3947 38.1998 32.1141 37.8151 31.7451C37.4328 31.3781 37.1364 30.9311 36.9471 30.4361C36.7582 29.9432 36.6817 29.4143 36.7231 28.8881C36.7231 26.6841 39.6281 15.6991 39.6281 13.8911C39.6281 13.0371 39.4271 12.5331 38.6601 12.5331C37.8043 12.6704 37.0073 13.0548 36.3671 13.6391V12.0831C37.6966 10.877 39.4128 10.1849 41.2071 10.1311C41.743 10.0834 42.2829 10.1516 42.7901 10.3311C43.2961 10.5111 43.7561 10.7961 44.1391 11.1691C44.5211 11.5411 44.8171 11.9911 45.0051 12.4891C45.1921 12.9851 45.2681 13.5161 45.2251 14.0441C45.2251 16.2481 42.3221 27.1881 42.3221 28.9871C42.3221 29.8421 42.5221 30.3461 43.2901 30.3461C44.1343 30.2057 44.9256 29.8422 45.5821 29.2931V30.7951C44.2576 32.0093 42.5384 32.7031 40.7421 32.7481ZM44.3031 0.999089C44.7011 0.987089 45.0971 1.05909 45.4641 1.21309C45.8301 1.36709 46.1591 1.59709 46.4251 1.88809C46.6921 2.17687 46.8918 2.52128 47.0097 2.89651C47.1277 3.27175 47.1609 3.66846 47.1071 4.05809C47.0089 4.88999 46.6102 5.6574 45.9861 6.21609C45.3566 6.77989 44.546 7.09953 43.7011 7.11709C43.3036 7.12968 42.908 7.0567 42.5411 6.90309C42.1754 6.75031 41.8472 6.52002 41.5791 6.22809C41.312 5.93931 41.1124 5.5949 40.9944 5.21967C40.8765 4.84443 40.8433 4.44772 40.8971 4.05809C40.9954 3.22621 41.394 2.45884 42.0181 1.90009C42.6478 1.33673 43.4584 1.01746 44.3031 1.00009V0.999089ZM55.6091 28.0341C55.3541 29.3921 55.5091 30.3371 56.4771 30.3371C57.3243 30.2067 58.1182 29.8419 58.7691 29.2841L58.8601 30.7951C57.5307 32.0015 55.8145 32.694 54.0201 32.7481C50.8601 32.7481 49.6371 30.4901 50.1031 27.6831L53.2081 10.2751C54.2401 4.46309 53.8831 3.69809 50.7231 3.69809L50.9241 2.29509L60.4491 1.05309L55.6091 28.0331V28.0341ZM82.3951 27.9881C82.1391 29.3471 82.2391 30.3461 83.2621 30.3461C84.1112 30.1874 84.9027 29.8053 85.5551 29.2391V30.7951C84.2342 32.0151 82.5127 32.7097 80.7151 32.7481C79.8058 32.814 78.9042 32.5412 78.1841 31.9821C77.4696 31.4285 76.9903 30.6257 76.8421 29.7341C76.0755 30.7326 75.0917 31.5434 73.9651 32.1051C72.8328 32.6705 71.5876 32.9733 70.3221 32.9911C64.2671 32.9911 61.7191 27.7281 62.8881 21.4031C64.0571 15.0791 69.5081 9.91509 75.6731 9.91509C77.1305 9.88456 78.5722 10.2216 79.8651 10.8951L80.0201 10.0951C81.2261 3.90509 80.6691 3.69809 77.5091 3.69809L77.6641 2.29509L87.2341 1.05309L82.3941 27.9891L82.3951 27.9881ZM75.8281 12.1821C72.3121 12.1821 69.9751 16.2931 69.0521 21.3581C68.0841 26.6751 68.6961 30.3551 72.0021 30.3551C74.2391 30.3551 76.7871 27.6551 77.5541 23.5351L79.4361 13.1001C78.3479 12.4506 77.0943 12.1317 75.8281 12.1821ZM98.4861 32.9991C91.4081 32.9991 89.4721 27.9791 90.3401 23.1661L92.6501 10.2751C93.7191 4.45509 93.3631 3.65309 90.2031 3.65309L90.4031 2.25009L99.9561 1.05309L98.0201 11.9841C99.5139 10.708 101.399 9.98112 103.363 9.92409C109.527 9.92409 112.422 15.0881 111.308 21.4121C110.194 27.7371 104.523 33.0001 98.4861 33.0001V32.9991ZM101.792 12.3081C100.765 12.3282 99.7707 12.6687 98.9471 13.2821C98.1297 13.8907 97.527 14.7434 97.2261 15.7171L95.8011 23.8141C94.9331 28.6271 96.6691 30.5881 98.8611 30.5881C102.066 30.5881 104.057 27.0801 105.125 21.3131C106.075 16.1491 105.208 12.3351 101.783 12.3351L101.792 12.3081ZM120.961 24.3271C120.961 28.1871 122.842 30.2471 126.44 30.2471C128.267 30.2471 130.924 28.9971 132.605 27.3411L133.317 28.9421C132.106 30.2051 130.655 31.2141 129.05 31.9101C127.438 32.6089 125.704 32.9821 123.947 33.0081C118.605 33.0081 114.988 29.0951 114.988 23.7781C114.988 15.9061 121.609 9.93309 127.975 9.93309C131.847 9.93309 134.029 12.0381 134.029 14.4941C133.984 18.3081 130.313 22.5911 120.961 24.3271ZM127.527 12.2361C124.623 12.2361 121.829 16.4011 121.061 22.3661C126.915 20.9621 129.408 17.0491 129.463 14.5391C129.454 13.1361 128.787 12.2361 127.518 12.2361H127.527ZM154.806 32.7481C153.897 32.8139 152.995 32.5411 152.275 31.9821C151.561 31.4284 151.082 30.6256 150.934 29.7341C150.196 30.7322 149.235 31.5446 148.128 32.1071C147.016 32.6731 145.789 32.9753 144.541 32.9901C138.587 32.9901 136.039 27.7281 137.235 21.4031C138.431 15.0791 143.792 9.92309 149.975 9.92309C151.285 9.91646 152.584 10.1739 153.792 10.6801H159.6L156.486 27.9881C156.23 29.3471 156.331 30.3461 157.354 30.3461C158.203 30.1872 158.994 29.8051 159.646 29.2391V30.7951C158.325 32.015 156.604 32.7096 154.806 32.7481ZM150.121 12.1821C146.705 12.1821 144.313 16.2931 143.399 21.3581C142.431 26.6751 143.098 30.3551 146.139 30.3551C148.477 30.3551 150.979 27.5481 151.692 23.5351L153.573 13.1001C152.546 12.4506 151.344 12.1303 150.13 12.1821H150.121ZM177.418 15.8431C176.039 15.8431 175.682 14.7911 175.281 13.6841C175.144 13.1245 174.815 12.6306 174.352 12.2881C173.885 11.9427 173.313 11.7686 172.733 11.7951C171.979 11.7552 171.238 11.9952 170.65 12.4691C170.067 12.9382 169.683 13.6099 169.573 14.3501C169.418 15.7091 170.44 16.8601 172.376 18.5151L174.97 20.6201C175.934 21.3379 176.682 22.3064 177.134 23.4201C177.583 24.5301 177.716 25.7401 177.518 26.9181C176.86 30.6781 173.701 32.9901 169.472 32.9901C164.376 32.9901 161.125 30.0301 161.481 28.0241C161.564 27.4971 161.834 27.0141 162.244 26.6661C162.654 26.3161 163.177 26.1221 163.719 26.1171C165.043 26.1171 165.545 27.1161 165.956 28.4201C166.22 29.1701 166.727 29.8121 167.399 30.2481C168.074 30.6844 168.872 30.8891 169.673 30.8311C170.465 30.8686 171.242 30.613 171.857 30.1131C172.467 29.6174 172.867 28.9106 172.979 28.1331C173.18 26.3331 172.066 25.2271 169.975 23.3641L167.427 21.1601C166.531 20.4868 165.831 19.5869 165.399 18.5531C164.969 17.5244 164.824 16.3991 164.979 15.2951C165.436 12.8841 167.719 9.89709 172.97 9.89709C177.043 9.89709 179.591 12.1551 179.363 13.9631C179.338 14.4618 179.123 14.932 178.763 15.2781C178.403 15.6261 177.922 15.8281 177.418 15.8431ZM196.057 12.6951H191.116L188.724 26.0271C188.212 28.7891 188.623 30.0401 190.148 30.0401C190.961 30.0401 192.239 29.5901 194.066 27.7371L194.166 29.6891C193.336 30.6568 192.308 31.4344 191.151 31.9691C189.989 32.5068 188.726 32.7905 187.445 32.8011C183.984 32.8011 182.249 30.3911 183.071 25.9281L185.463 12.6951H181.6L181.902 10.6351H185.801L186.824 4.67009H192.523L191.454 10.6341H196.395L196.057 12.6941V12.6951Z" fill="#9C9C9C"/>
</g>
<defs>
<clipPath id="clip0_28_67">
<rect width="196" height="34" fill="white" transform="translate(0.413086)"/>
</clipPath>
</defs>
</svg>
